<?xml version="1.0" encoding="utf-8"?>
<!-- Generator: Adobe Illustrator 17.0.0, SVG Export Plug-In . SVG Version: 6.00 Build 0)  -->
<!DOCTYPE svg PUBLIC "-//W3C//DTD SVG 1.1//EN" "http://www.w3.org/Graphics/SVG/1.1/DTD/svg11.dtd">
<svg version="1.1" id="Camada_1" xmlns="http://www.w3.org/2000/svg" xmlns:xlink="http://www.w3.org/1999/xlink" x="0px" y="0px"
	 width="40px" height="40px" viewBox="0 0 40 40" enable-background="new 0 0 40 40" xml:space="preserve">
<path fill="#1A1A1A" d="M32.191,6.645H21.743c-0.698,0-1.317,0.315-1.743,0.804c-0.425-0.489-1.044-0.804-1.743-0.804H7.809
	c-1.283,0-2.322,1.041-2.322,2.322v19.745c0,1.281,1.039,2.322,2.322,2.322h10.448c0.011,0,0.023-0.005,0.034-0.005
	c0.617,0.016,1.116,0.513,1.129,1.13v1.196h1.161v-0.644h0.011v-0.524c0-0.628,0.501-1.138,1.125-1.158
	c0.009,0,0.017,0.003,0.025,0.003h10.448c1.283,0,2.322-1.041,2.322-2.322V8.967C34.513,7.685,33.474,6.645,32.191,6.645z
	 M6.648,28.712V8.967c0-0.639,0.52-1.161,1.161-1.161h10.448c0.639,0,1.161,0.522,1.161,1.161v19.745
	c0,0.639-0.522,1.161-1.161,1.161H7.809C7.169,29.872,6.648,29.351,6.648,28.712z M33.352,28.712c0,0.639-0.52,1.161-1.161,1.161
	H21.743c-0.639,0-1.161-0.522-1.161-1.161v-0.475V8.967c0-0.639,0.522-1.161,1.161-1.161h10.448c0.64,0,1.161,0.522,1.161,1.161
	V28.712z"/>
</svg>
