<?xml version="1.0" encoding="utf-8"?>
<!-- Generator: Adobe Illustrator 17.0.0, SVG Export Plug-In . SVG Version: 6.00 Build 0)  -->
<!DOCTYPE svg PUBLIC "-//W3C//DTD SVG 1.1//EN" "http://www.w3.org/Graphics/SVG/1.1/DTD/svg11.dtd">
<svg version="1.1" id="Camada_1" xmlns="http://www.w3.org/2000/svg" xmlns:xlink="http://www.w3.org/1999/xlink" x="0px" y="0px"
	 width="150.5px" height="40px" viewBox="0 0 150.5 40" enable-background="new 0 0 150.5 40" xml:space="preserve">
<g>
	<g>
		<path fill="#FFFFFF" d="M57.422,3.747c1.724,0,1.702,1.707,1.702,1.707v6.036c0,1.39,0.105,3.136,2.764,3.136
			c0.439,0,1.76-0.021,2.463-1.11c0.264-0.389,0.405-0.88,0.405-2.164V5.416c0-1.714,1.723-1.67,1.723-1.67h0.935v7.937
			c0,3.785-3.01,4.998-5.579,4.998c-1.268,0-3.59-0.282-4.787-2.199c-0.616-0.966-0.652-1.952-0.652-3.131V3.747H57.422z"/>
		<path fill="#FFFFFF" d="M77.373,5.281v7.584l-0.813-1.478l-3.7-6.821c0,0-0.325-0.817-1.427-0.817h-0.999
			c0,0-1.337-0.07-1.337,1.739v11.135h1.089c1.561,0,1.511-1.667,1.511-1.667V7.563l3.066,5.636l1.447,2.666
			c0,0,0.325,0.817,1.427,0.817h1c0,0,1.336,0.068,1.336-1.74V3.804h-0.944C79.029,3.804,77.373,3.746,77.373,5.281"/>
		<path fill="#FFFFFF" d="M90.093,5.138c0.448,1.347,4.003,11.543,4.003,11.543h-2.787l-0.929-2.786h-5.107l-0.964,2.786h-2.642
			c0,0,3.724-10.224,4.214-11.543c0.308-0.837,1.031-1.208,1.52-1.335c0.282-0.072,0.723-0.075,1.045-0.006
			C89.001,3.919,89.808,4.284,90.093,5.138 M89.683,11.806l-1.785-5.498l-1.91,5.498H89.683z"/>
		<path fill="#FFFFFF" d="M97.959,11.712h-3.003c-1.426,0-1.91-2.477-1.91-2.477h3.005C97.542,9.235,97.959,11.712,97.959,11.712"/>
		<path fill="#FFFFFF" d="M126.593,11.848l-2.406-0.704c-1.557-0.498-2.618-1.983-2.618-3.608c0-2.121,1.7-3.808,3.821-3.808h4.74
			v1.687h-3.324c-0.64,0-1.203,0.491-1.203,1.203c0,0.422,0.283,0.918,0.778,1.06l2.334,0.777c1.625,0.494,2.474,2.12,2.474,3.962
			c0,2.334-1.907,4.243-4.242,4.243h-5.02v-1.908h4.314c0.632,0,1.341-0.636,1.341-1.487
			C127.583,12.628,127.23,12.063,126.593,11.848"/>
		<path fill="#FFFFFF" d="M114.806,16.681c-2.825,0-5.031-1.994-5.031-4.472V3.747h3.791v8.803c0,1.103,0.964,1.995,2.204,1.995
			c1.171,0,2.204-0.892,2.204-1.995V3.747h1.789v8.462C119.762,14.688,117.562,16.681,114.806,16.681"/>
		<path fill="#FFFFFF" d="M103.537,11.87l-2.402-0.705c-1.486-0.497-2.546-1.983-2.546-3.607c0-2.123,1.698-3.81,3.821-3.81h4.737
			v1.687h-3.326c-0.633,0-1.199,0.496-1.199,1.205c0,0.424,0.283,0.918,0.777,1.059l2.334,0.778
			c1.558,0.493,2.406,2.119,2.406,3.962c0,2.335-1.842,4.243-4.176,4.243h-5.018v-1.908h4.314c0.636,0,1.341-0.638,1.341-1.488
			C104.598,12.648,104.175,12.084,103.537,11.87"/>
		<path fill="#FFFFFF" d="M34.559,29.782c-8.408,0-15.249-6.837-15.249-15.248v-0.246h3.121v0.246
			c0,6.688,5.441,12.129,12.128,12.129c6.687,0,12.127-5.441,12.127-12.129v-0.246h3.121v0.246
			C49.807,22.945,42.965,29.782,34.559,29.782"/>
		<path fill="#FFFFFF" d="M19.331,12.79V0.679h0.247c0.895,0,1.602,0.265,2.102,0.784c0.802,0.838,0.762,2.026,0.759,2.075v9.252
			H19.331z"/>
		<path fill="#FFFFFF" d="M46.679,12.79V3.527c-0.002-0.039-0.043-1.227,0.76-2.064c0.499-0.519,1.206-0.784,2.099-0.784h0.248
			l0,0.247l0,11.864H46.679z"/>
		<path fill="#FFFFFF" d="M37.852,5.065c0-1.267-1.138-1.121-1.138-1.121h-4.478c0,0-0.811,0.002-0.811,0.788v5.266h6.427V5.065z"/>
		<path fill="#FFFFFF" d="M31.425,22.184c0,1.27,1.141,1.126,1.141,1.126h4.477c0,0,0.809-0.004,0.809-0.787v-5.27h-6.427V22.184z"
			/>
		<path fill="#FFFFFF" d="M24.97,10.703v3.769c0,2.164,1.76,2.039,1.76,2.039h10.572l-5.974-5.806L24.97,10.703z"/>
		<path fill="#FFFFFF" d="M44.358,12.724c0-2.157-1.753-2.031-1.753-2.031h-3.594c0.001,0.003,0.001,0.007,0.002,0.011h-7.048
			l2.296,2.223l2.219-2.222l2.053,2.054l-2.188,2.187l0.197,0.191l2.021-2.017l0.161,0.161l-2.017,2.016l0.197,0.191l1.79-1.793
			l0.161,0.161l-1.789,1.79l0.873,0.844l6.015-0.007v-0.005h0.402V12.724z"/>
	</g>
	<path fill="#FFFFFF" d="M58.535,19.331h0.438v2.55c0,0.232-0.032,0.43-0.091,0.599c-0.06,0.168-0.145,0.304-0.257,0.414
		c-0.111,0.107-0.244,0.184-0.402,0.234c-0.156,0.052-0.328,0.077-0.519,0.077c-0.451,0-0.791-0.102-1.021-0.305
		c-0.229-0.205-0.343-0.514-0.343-0.93v-2.638h0.453v2.425c0,0.196,0.019,0.358,0.058,0.49c0.038,0.134,0.095,0.241,0.172,0.322
		c0.076,0.083,0.171,0.142,0.286,0.178c0.115,0.034,0.25,0.054,0.403,0.054c0.294,0,0.506-0.082,0.634-0.243
		c0.127-0.164,0.19-0.429,0.19-0.802V19.331z"/>
	<path fill="#FFFFFF" d="M62.022,23.155V21.6c0-0.285-0.042-0.499-0.123-0.643c-0.082-0.144-0.232-0.215-0.451-0.215
		c-0.193,0-0.353,0.051-0.479,0.155c-0.125,0.104-0.214,0.234-0.264,0.39v1.868h-0.437v-2.73h0.306l0.082,0.332h0.022
		c0.089-0.115,0.205-0.21,0.353-0.286c0.147-0.076,0.322-0.111,0.527-0.111c0.148,0,0.28,0.017,0.393,0.053
		c0.112,0.032,0.206,0.095,0.28,0.18c0.076,0.089,0.131,0.207,0.17,0.354c0.038,0.146,0.056,0.334,0.056,0.559v1.649H62.022z"/>
	<path fill="#FFFFFF" d="M63.666,19.593c0-0.086,0.028-0.155,0.085-0.215c0.056-0.061,0.128-0.091,0.215-0.091
		c0.088,0,0.162,0.03,0.225,0.091c0.062,0.06,0.093,0.129,0.093,0.215c0,0.085-0.031,0.154-0.093,0.208
		c-0.063,0.053-0.137,0.082-0.225,0.082c-0.087,0-0.159-0.029-0.215-0.082C63.694,19.747,63.666,19.678,63.666,19.593
		 M63.758,20.425h0.437v2.734h-0.437V20.425z"/>
	<polygon fill="#FFFFFF" points="66.326,22.024 66.479,22.544 66.485,22.544 66.621,22.013 67.233,20.425 67.703,20.425 
		66.539,23.219 66.354,23.219 65.168,20.425 65.671,20.425 	"/>
	<path fill="#FFFFFF" d="M70.517,22.937c-0.108,0.088-0.248,0.157-0.414,0.206c-0.165,0.052-0.34,0.079-0.525,0.079
		c-0.209,0-0.389-0.034-0.541-0.102c-0.154-0.067-0.279-0.164-0.379-0.289c-0.097-0.128-0.17-0.276-0.217-0.449
		c-0.048-0.175-0.071-0.372-0.071-0.591c0-0.467,0.104-0.82,0.311-1.063c0.208-0.245,0.505-0.367,0.891-0.367
		c0.124,0,0.247,0.015,0.372,0.04c0.124,0.028,0.235,0.08,0.334,0.157c0.098,0.077,0.178,0.186,0.24,0.323
		c0.062,0.142,0.092,0.326,0.092,0.555c0,0.12-0.011,0.255-0.032,0.399h-1.755c0,0.162,0.017,0.301,0.05,0.427
		c0.034,0.122,0.084,0.228,0.153,0.314c0.07,0.084,0.159,0.149,0.271,0.197c0.111,0.044,0.247,0.067,0.407,0.067
		c0.124,0,0.248-0.022,0.372-0.066c0.123-0.042,0.215-0.091,0.277-0.154L70.517,22.937z M69.578,20.742
		c-0.216,0-0.389,0.055-0.517,0.169c-0.129,0.111-0.206,0.307-0.232,0.579h1.355c0-0.275-0.053-0.469-0.16-0.582
		C69.919,20.797,69.769,20.742,69.578,20.742"/>
	<path fill="#FFFFFF" d="M72.997,20.847c-0.109-0.04-0.212-0.058-0.311-0.058c-0.157,0-0.281,0.046-0.372,0.129
		c-0.091,0.086-0.147,0.196-0.168,0.324v1.913h-0.438v-2.73h0.307l0.082,0.332h0.022c0.068-0.123,0.151-0.218,0.248-0.286
		c0.096-0.069,0.219-0.102,0.368-0.102c0.106,0,0.225,0.019,0.357,0.056L72.997,20.847z"/>
	<path fill="#FFFFFF" d="M75.177,22.411c0-0.109-0.033-0.191-0.098-0.255c-0.065-0.062-0.146-0.115-0.243-0.157
		c-0.096-0.041-0.202-0.082-0.317-0.122c-0.115-0.037-0.22-0.086-0.316-0.144c-0.097-0.059-0.178-0.139-0.244-0.232
		c-0.065-0.097-0.097-0.223-0.097-0.384c0-0.264,0.075-0.454,0.223-0.577c0.151-0.121,0.359-0.181,0.624-0.181
		c0.197,0,0.362,0.017,0.495,0.053c0.134,0.032,0.248,0.075,0.348,0.12l-0.104,0.363c-0.084-0.042-0.186-0.078-0.305-0.107
		c-0.118-0.035-0.245-0.047-0.38-0.047c-0.159,0-0.279,0.025-0.352,0.081c-0.075,0.055-0.113,0.149-0.113,0.283
		c0,0.095,0.034,0.17,0.099,0.223c0.066,0.053,0.146,0.099,0.243,0.14c0.096,0.042,0.201,0.085,0.316,0.124
		c0.116,0.041,0.221,0.095,0.316,0.159C75.37,21.816,75.45,21.9,75.516,22c0.066,0.102,0.098,0.236,0.098,0.396
		c0,0.118-0.019,0.227-0.057,0.328c-0.038,0.1-0.099,0.189-0.177,0.263c-0.08,0.074-0.18,0.132-0.298,0.174
		c-0.118,0.041-0.258,0.061-0.418,0.061c-0.207,0-0.383-0.021-0.531-0.061c-0.145-0.038-0.266-0.085-0.365-0.141l0.132-0.372
		c0.083,0.048,0.193,0.091,0.328,0.133c0.134,0.039,0.271,0.058,0.409,0.058c0.157,0,0.285-0.03,0.388-0.092
		C75.127,22.682,75.177,22.574,75.177,22.411"/>
	<path fill="#FFFFFF" d="M76.686,19.593c0-0.086,0.028-0.155,0.084-0.215c0.057-0.061,0.129-0.091,0.215-0.091
		c0.089,0,0.163,0.03,0.226,0.091c0.063,0.06,0.092,0.129,0.092,0.215c0,0.085-0.03,0.154-0.092,0.208
		c-0.062,0.053-0.137,0.082-0.226,0.082c-0.086,0-0.158-0.029-0.215-0.082C76.713,19.747,76.686,19.678,76.686,19.593
		 M76.778,20.425h0.438v2.734h-0.438V20.425z"/>
	<path fill="#FFFFFF" d="M80.657,22.217c0,0.184,0.002,0.354,0.006,0.505c0.004,0.15,0.019,0.3,0.049,0.447h-0.295l-0.109-0.388
		h-0.022c-0.072,0.125-0.18,0.231-0.317,0.315c-0.139,0.084-0.301,0.126-0.486,0.126c-0.362,0-0.635-0.113-0.812-0.345
		c-0.176-0.229-0.264-0.588-0.264-1.076c0-0.467,0.109-0.821,0.33-1.062c0.221-0.243,0.525-0.365,0.91-0.365
		c0.133,0,0.24,0.009,0.319,0.024c0.077,0.014,0.163,0.037,0.253,0.07v-1.137h0.438V22.217z M79.554,22.839
		c0.185,0,0.332-0.048,0.441-0.144c0.111-0.096,0.185-0.245,0.224-0.441V20.9c-0.064-0.05-0.138-0.087-0.224-0.11
		c-0.084-0.023-0.195-0.033-0.331-0.033c-0.253,0-0.449,0.082-0.591,0.25c-0.144,0.166-0.214,0.43-0.214,0.794
		c0,0.15,0.012,0.286,0.036,0.416c0.025,0.127,0.062,0.236,0.118,0.327c0.055,0.091,0.126,0.165,0.216,0.216
		C79.316,22.815,79.426,22.839,79.554,22.839"/>
	<path fill="#FFFFFF" d="M81.865,20.627c0.139-0.085,0.299-0.145,0.484-0.187c0.184-0.041,0.375-0.06,0.577-0.06
		c0.189,0,0.34,0.024,0.455,0.074c0.113,0.052,0.203,0.12,0.263,0.201c0.058,0.083,0.099,0.172,0.12,0.272
		c0.02,0.096,0.029,0.196,0.029,0.294c0,0.22-0.004,0.433-0.015,0.64c-0.011,0.208-0.017,0.405-0.017,0.589
		c0,0.138,0.007,0.264,0.017,0.384c0.011,0.121,0.03,0.231,0.059,0.335h-0.322l-0.115-0.386h-0.027
		c-0.033,0.053-0.076,0.102-0.124,0.152c-0.05,0.048-0.109,0.092-0.177,0.13c-0.069,0.04-0.149,0.069-0.242,0.094
		c-0.09,0.027-0.194,0.038-0.311,0.038c-0.116,0-0.225-0.015-0.325-0.055c-0.101-0.034-0.186-0.085-0.259-0.156
		c-0.074-0.066-0.131-0.147-0.172-0.241c-0.043-0.096-0.064-0.203-0.064-0.322c0-0.16,0.033-0.296,0.1-0.404
		c0.065-0.107,0.157-0.193,0.276-0.254c0.117-0.063,0.26-0.112,0.425-0.136c0.166-0.029,0.35-0.043,0.55-0.043h0.149
		c0.05,0,0.1,0.002,0.151,0.013c0.011-0.111,0.017-0.208,0.017-0.299c0-0.198-0.042-0.34-0.121-0.416
		c-0.079-0.082-0.227-0.122-0.438-0.122c-0.06,0-0.127,0.004-0.199,0.013c-0.07,0.011-0.143,0.023-0.218,0.037
		c-0.075,0.021-0.146,0.04-0.213,0.064c-0.068,0.024-0.127,0.05-0.177,0.082L81.865,20.627z M82.64,22.817
		c0.102,0,0.193-0.014,0.273-0.042c0.08-0.028,0.149-0.062,0.209-0.103c0.056-0.04,0.106-0.086,0.143-0.14
		c0.039-0.051,0.067-0.099,0.086-0.147v-0.452c-0.051-0.006-0.103-0.01-0.156-0.01c-0.052-0.001-0.105-0.004-0.155-0.004
		c-0.112,0-0.224,0.009-0.331,0.02c-0.107,0.014-0.202,0.038-0.284,0.072c-0.082,0.034-0.149,0.082-0.198,0.143
		c-0.047,0.059-0.071,0.133-0.071,0.226c0,0.127,0.045,0.232,0.136,0.314C82.382,22.775,82.498,22.817,82.64,22.817"/>
	<path fill="#FFFFFF" d="M87.126,22.217c0,0.184,0,0.354,0.004,0.505c0.004,0.15,0.022,0.3,0.05,0.447h-0.295l-0.109-0.388h-0.022
		c-0.075,0.125-0.179,0.231-0.317,0.315c-0.138,0.084-0.302,0.126-0.485,0.126c-0.366,0-0.635-0.113-0.813-0.345
		c-0.175-0.229-0.264-0.588-0.264-1.076c0-0.467,0.111-0.821,0.331-1.062c0.22-0.243,0.524-0.365,0.91-0.365
		c0.134,0,0.242,0.009,0.319,0.024c0.078,0.014,0.162,0.037,0.255,0.07v-1.137h0.437V22.217z M86.022,22.839
		c0.186,0,0.335-0.048,0.443-0.144c0.109-0.096,0.183-0.245,0.225-0.441V20.9c-0.067-0.05-0.142-0.087-0.225-0.11
		c-0.084-0.023-0.196-0.033-0.333-0.033c-0.253,0-0.448,0.082-0.59,0.25c-0.142,0.166-0.214,0.43-0.214,0.794
		c0,0.15,0.011,0.286,0.036,0.416c0.022,0.127,0.062,0.236,0.118,0.327c0.054,0.091,0.128,0.165,0.216,0.216
		C85.785,22.815,85.895,22.839,86.022,22.839"/>
	<path fill="#FFFFFF" d="M90.37,22.937c-0.109,0.088-0.247,0.157-0.412,0.206c-0.166,0.052-0.342,0.079-0.528,0.079
		c-0.208,0-0.388-0.034-0.541-0.102c-0.153-0.067-0.277-0.164-0.376-0.289c-0.098-0.128-0.172-0.276-0.219-0.449
		c-0.048-0.175-0.069-0.372-0.069-0.591c0-0.467,0.102-0.82,0.309-1.063c0.208-0.245,0.505-0.367,0.891-0.367
		c0.125,0,0.248,0.015,0.372,0.04c0.124,0.028,0.235,0.08,0.333,0.157c0.098,0.077,0.179,0.186,0.24,0.323
		c0.063,0.142,0.095,0.326,0.095,0.555c0,0.12-0.011,0.255-0.034,0.399h-1.755c0,0.162,0.017,0.301,0.051,0.427
		c0.03,0.122,0.083,0.228,0.151,0.314c0.07,0.084,0.16,0.149,0.272,0.197c0.11,0.044,0.247,0.067,0.406,0.067
		c0.123,0,0.247-0.022,0.372-0.066c0.123-0.042,0.217-0.091,0.279-0.154L90.37,22.937z M89.431,20.742
		c-0.215,0-0.388,0.055-0.517,0.169c-0.128,0.111-0.206,0.307-0.232,0.579h1.356c0-0.275-0.054-0.469-0.158-0.582
		C89.774,20.797,89.624,20.742,89.431,20.742"/>
	<path fill="#FFFFFF" d="M95.117,22.097h-1.405l-0.379,1.058h-0.453l1.447-3.884h0.209l1.452,3.884h-0.482L95.117,22.097z
		 M93.86,21.703h1.119l-0.423-1.164l-0.138-0.58h-0.004l-0.136,0.589L93.86,21.703z"/>
	<path fill="#FFFFFF" d="M96.862,19.331H97.3v1.361h0.021c0.083-0.107,0.191-0.189,0.319-0.248c0.128-0.057,0.27-0.085,0.423-0.085
		c0.355,0,0.619,0.114,0.795,0.339c0.176,0.226,0.266,0.576,0.266,1.048c0,0.478-0.117,0.84-0.351,1.087
		c-0.233,0.247-0.561,0.371-0.983,0.371c-0.204,0-0.389-0.022-0.553-0.066c-0.168-0.043-0.291-0.089-0.376-0.142V19.331z
		 M97.987,20.742c-0.181,0-0.328,0.05-0.442,0.154c-0.113,0.101-0.197,0.244-0.246,0.429v1.377c0.068,0.041,0.151,0.071,0.251,0.092
		c0.098,0.021,0.2,0.028,0.304,0.028c0.249,0,0.446-0.086,0.593-0.264c0.147-0.172,0.221-0.445,0.221-0.818
		c0-0.143-0.013-0.273-0.038-0.398c-0.024-0.125-0.065-0.228-0.121-0.319c-0.053-0.087-0.123-0.153-0.21-0.207
		C98.216,20.767,98.11,20.742,97.987,20.742"/>
	<path fill="#FFFFFF" d="M102.216,22.937c-0.11,0.088-0.247,0.157-0.412,0.206c-0.166,0.052-0.342,0.079-0.529,0.079
		c-0.207,0-0.387-0.034-0.54-0.102c-0.153-0.067-0.279-0.164-0.378-0.289c-0.096-0.128-0.17-0.276-0.219-0.449
		c-0.047-0.175-0.07-0.372-0.07-0.591c0-0.467,0.104-0.82,0.312-1.063c0.206-0.245,0.504-0.367,0.889-0.367
		c0.125,0,0.25,0.015,0.373,0.04c0.125,0.028,0.236,0.08,0.332,0.157c0.1,0.077,0.179,0.186,0.242,0.323
		c0.06,0.142,0.093,0.326,0.093,0.555c0,0.12-0.012,0.255-0.033,0.399h-1.755c0,0.162,0.015,0.301,0.049,0.427
		c0.032,0.122,0.084,0.228,0.153,0.314c0.07,0.084,0.161,0.149,0.272,0.197c0.11,0.044,0.246,0.067,0.407,0.067
		c0.125,0,0.247-0.022,0.372-0.066c0.122-0.042,0.217-0.091,0.277-0.154L102.216,22.937z M101.276,20.742
		c-0.215,0-0.387,0.055-0.515,0.169c-0.131,0.111-0.206,0.307-0.232,0.579h1.354c0-0.275-0.051-0.469-0.159-0.582
		C101.617,20.797,101.468,20.742,101.276,20.742"/>
	<path fill="#FFFFFF" d="M104.696,20.847c-0.11-0.04-0.213-0.058-0.312-0.058c-0.157,0-0.281,0.046-0.372,0.129
		c-0.09,0.086-0.145,0.196-0.168,0.324v1.913h-0.438v-2.73h0.306l0.083,0.332h0.022c0.068-0.123,0.151-0.218,0.246-0.286
		c0.098-0.069,0.221-0.102,0.37-0.102c0.106,0,0.225,0.019,0.357,0.056L104.696,20.847z"/>
	<path fill="#FFFFFF" d="M105.478,20.425h0.425v-0.541l0.438-0.126v0.667h0.742v0.383h-0.742v1.514c0,0.187,0.025,0.322,0.07,0.401
		c0.047,0.078,0.128,0.118,0.24,0.118c0.096,0,0.175-0.011,0.241-0.029c0.067-0.021,0.138-0.046,0.219-0.078l0.098,0.331
		c-0.098,0.048-0.208,0.086-0.323,0.117c-0.115,0.028-0.241,0.042-0.377,0.042c-0.221,0-0.377-0.061-0.471-0.189
		c-0.088-0.127-0.136-0.335-0.136-0.632v-1.593h-0.425V20.425z"/>
	<path fill="#FFFFFF" d="M108.056,20.627c0.14-0.085,0.298-0.145,0.484-0.187c0.185-0.041,0.375-0.06,0.578-0.06
		c0.187,0,0.34,0.024,0.453,0.074c0.115,0.052,0.204,0.12,0.264,0.201c0.061,0.083,0.099,0.172,0.12,0.272
		c0.02,0.096,0.03,0.196,0.03,0.294c0,0.22-0.003,0.433-0.017,0.64c-0.01,0.208-0.015,0.405-0.015,0.589
		c0,0.138,0.006,0.264,0.015,0.384c0.013,0.121,0.032,0.231,0.06,0.335h-0.321l-0.115-0.386h-0.027
		c-0.034,0.053-0.073,0.102-0.125,0.152c-0.047,0.048-0.108,0.092-0.178,0.13c-0.068,0.04-0.147,0.069-0.238,0.094
		c-0.093,0.027-0.197,0.038-0.314,0.038c-0.118,0-0.225-0.015-0.325-0.055c-0.1-0.034-0.187-0.085-0.259-0.156
		c-0.073-0.066-0.13-0.147-0.174-0.241c-0.041-0.096-0.061-0.203-0.061-0.322c0-0.16,0.031-0.296,0.099-0.404
		c0.064-0.107,0.157-0.193,0.275-0.254c0.118-0.063,0.259-0.112,0.425-0.136c0.166-0.029,0.349-0.043,0.549-0.043h0.151
		c0.047,0,0.098,0.002,0.148,0.013c0.013-0.111,0.019-0.208,0.019-0.299c0-0.198-0.04-0.34-0.123-0.416
		c-0.079-0.082-0.225-0.122-0.435-0.122c-0.062,0-0.128,0.004-0.2,0.013c-0.072,0.011-0.143,0.023-0.219,0.037
		c-0.076,0.021-0.145,0.04-0.211,0.064c-0.07,0.024-0.126,0.05-0.178,0.082L108.056,20.627z M108.832,22.817
		c0.102,0,0.193-0.014,0.272-0.042c0.081-0.028,0.149-0.062,0.21-0.103c0.056-0.04,0.106-0.086,0.143-0.14
		c0.04-0.051,0.068-0.099,0.083-0.147v-0.452c-0.049-0.006-0.104-0.01-0.155-0.01c-0.053-0.001-0.104-0.004-0.155-0.004
		c-0.113,0-0.223,0.009-0.33,0.02c-0.108,0.014-0.202,0.038-0.286,0.072c-0.081,0.034-0.145,0.082-0.195,0.143
		c-0.049,0.059-0.074,0.133-0.074,0.226c0,0.127,0.046,0.232,0.136,0.314C108.574,22.775,108.689,22.817,108.832,22.817"/>
	<path fill="#FFFFFF" d="M115.186,22.217c0,0.184,0.002,0.354,0.006,0.505c0.004,0.15,0.021,0.3,0.051,0.447h-0.297l-0.109-0.388
		h-0.023c-0.071,0.125-0.177,0.231-0.317,0.315c-0.136,0.084-0.299,0.126-0.486,0.126c-0.364,0-0.634-0.113-0.81-0.345
		c-0.177-0.229-0.266-0.588-0.266-1.076c0-0.467,0.111-0.821,0.33-1.062c0.221-0.243,0.525-0.365,0.91-0.365
		c0.134,0,0.242,0.009,0.319,0.024c0.079,0.014,0.163,0.037,0.255,0.07v-1.137h0.436V22.217z M114.083,22.839
		c0.185,0,0.333-0.048,0.442-0.144c0.11-0.096,0.186-0.245,0.225-0.441V20.9c-0.066-0.05-0.142-0.087-0.225-0.11
		c-0.085-0.023-0.194-0.033-0.332-0.033c-0.253,0-0.448,0.082-0.589,0.25c-0.144,0.166-0.216,0.43-0.216,0.794
		c0,0.15,0.013,0.286,0.036,0.416c0.024,0.127,0.064,0.236,0.119,0.327c0.053,0.091,0.126,0.165,0.213,0.216
		C113.847,22.815,113.955,22.839,114.083,22.839"/>
	<path fill="#FFFFFF" d="M116.285,21.79c0-0.464,0.102-0.818,0.307-1.061c0.206-0.247,0.503-0.369,0.888-0.369
		c0.204,0,0.382,0.032,0.533,0.1c0.153,0.068,0.275,0.163,0.373,0.29c0.1,0.125,0.172,0.278,0.221,0.452
		c0.046,0.179,0.07,0.374,0.07,0.589c0,0.46-0.104,0.817-0.31,1.063c-0.206,0.245-0.501,0.368-0.888,0.368
		c-0.204,0-0.381-0.034-0.533-0.102c-0.151-0.067-0.275-0.164-0.374-0.289c-0.1-0.128-0.172-0.276-0.219-0.45
		C116.308,22.2,116.285,22.005,116.285,21.79 M116.736,21.79c0,0.138,0.015,0.272,0.042,0.398c0.028,0.128,0.07,0.24,0.13,0.336
		c0.057,0.091,0.134,0.169,0.229,0.227c0.094,0.059,0.209,0.088,0.344,0.088c0.495,0.004,0.744-0.345,0.744-1.049
		c0-0.142-0.015-0.278-0.041-0.406c-0.029-0.125-0.07-0.239-0.129-0.33c-0.058-0.097-0.134-0.172-0.23-0.229
		c-0.095-0.057-0.208-0.083-0.344-0.083C116.986,20.738,116.736,21.086,116.736,21.79"/>
	<path fill="#FFFFFF" d="M123.413,22.184c0-0.154-0.045-0.278-0.136-0.375c-0.091-0.097-0.204-0.181-0.34-0.258
		c-0.138-0.072-0.287-0.143-0.446-0.209c-0.16-0.066-0.309-0.145-0.445-0.239c-0.138-0.092-0.251-0.207-0.342-0.345
		c-0.09-0.136-0.136-0.31-0.136-0.521c0-0.295,0.104-0.535,0.312-0.71c0.208-0.175,0.504-0.261,0.884-0.261
		c0.223,0,0.425,0.015,0.607,0.049c0.181,0.034,0.323,0.076,0.425,0.124l-0.136,0.407c-0.084-0.042-0.208-0.084-0.37-0.12
		c-0.16-0.037-0.344-0.058-0.548-0.058c-0.242,0-0.421,0.057-0.54,0.163c-0.121,0.109-0.181,0.235-0.181,0.38
		c0,0.143,0.045,0.262,0.136,0.354c0.092,0.095,0.206,0.181,0.342,0.255c0.136,0.076,0.287,0.15,0.446,0.222
		c0.161,0.073,0.308,0.157,0.446,0.252c0.134,0.098,0.249,0.211,0.34,0.348c0.092,0.133,0.138,0.303,0.138,0.501
		c0,0.165-0.03,0.313-0.089,0.445c-0.056,0.13-0.143,0.242-0.255,0.337c-0.114,0.096-0.249,0.168-0.409,0.217
		c-0.163,0.052-0.344,0.079-0.548,0.079c-0.274,0-0.499-0.021-0.678-0.061c-0.178-0.042-0.316-0.091-0.416-0.141l0.155-0.406
		c0.083,0.047,0.206,0.093,0.372,0.137c0.163,0.046,0.348,0.067,0.552,0.067c0.119,0,0.234-0.013,0.338-0.037
		c0.106-0.023,0.196-0.062,0.272-0.115c0.077-0.053,0.138-0.116,0.183-0.199C123.392,22.386,123.413,22.292,123.413,22.184"/>
	<path fill="#FFFFFF" d="M127.196,19.331h0.437v2.55c0,0.232-0.031,0.43-0.091,0.599c-0.06,0.168-0.145,0.304-0.257,0.414
		c-0.112,0.107-0.245,0.184-0.401,0.234c-0.158,0.052-0.33,0.077-0.519,0.077c-0.452,0-0.794-0.102-1.022-0.305
		c-0.231-0.205-0.344-0.514-0.344-0.93v-2.638h0.452v2.425c0,0.196,0.021,0.358,0.059,0.49c0.04,0.134,0.096,0.241,0.172,0.322
		c0.077,0.083,0.171,0.142,0.287,0.178c0.115,0.034,0.249,0.054,0.402,0.054c0.295,0,0.504-0.082,0.633-0.243
		c0.129-0.164,0.192-0.429,0.192-0.802V19.331z"/>
	<path fill="#FFFFFF" d="M130.696,22.184c0-0.154-0.043-0.278-0.136-0.375c-0.089-0.097-0.204-0.181-0.342-0.258
		c-0.136-0.072-0.285-0.143-0.444-0.209c-0.16-0.066-0.31-0.145-0.446-0.239c-0.136-0.092-0.251-0.207-0.342-0.345
		c-0.091-0.136-0.138-0.31-0.138-0.521c0-0.295,0.104-0.535,0.314-0.71c0.208-0.175,0.503-0.261,0.886-0.261
		c0.22,0,0.423,0.015,0.606,0.049c0.181,0.034,0.323,0.076,0.425,0.124l-0.136,0.407c-0.085-0.042-0.206-0.084-0.368-0.12
		c-0.163-0.037-0.346-0.058-0.55-0.058c-0.24,0-0.421,0.057-0.542,0.163c-0.119,0.109-0.179,0.235-0.179,0.38
		c0,0.143,0.045,0.262,0.136,0.354c0.09,0.095,0.204,0.181,0.342,0.255c0.136,0.076,0.286,0.15,0.444,0.222
		c0.162,0.073,0.309,0.157,0.446,0.252c0.136,0.098,0.253,0.211,0.344,0.348c0.09,0.133,0.136,0.303,0.136,0.501
		c0,0.165-0.03,0.313-0.087,0.445c-0.06,0.13-0.145,0.242-0.258,0.337c-0.114,0.096-0.249,0.168-0.41,0.217
		c-0.158,0.052-0.342,0.079-0.546,0.079c-0.272,0-0.501-0.021-0.676-0.061c-0.179-0.042-0.319-0.091-0.418-0.141l0.153-0.406
		c0.085,0.047,0.21,0.093,0.374,0.137c0.165,0.046,0.347,0.067,0.55,0.067c0.121,0,0.234-0.013,0.34-0.037
		c0.106-0.023,0.196-0.062,0.274-0.115c0.075-0.053,0.136-0.116,0.181-0.199C130.675,22.386,130.696,22.292,130.696,22.184"/>
</g>
</svg>
