<?xml version="1.0" encoding="iso-8859-1"?>
<!-- Generator: Adobe Illustrator 15.1.0, SVG Export Plug-In . SVG Version: 6.00 Build 0)  -->
<!DOCTYPE svg PUBLIC "-//W3C//DTD SVG 1.1//EN" "http://www.w3.org/Graphics/SVG/1.1/DTD/svg11.dtd">
<svg version="1.1" xmlns="http://www.w3.org/2000/svg" xmlns:xlink="http://www.w3.org/1999/xlink" x="0px" y="0px"
	 width="653.001px" height="605.001px" viewBox="0 0 653.001 605.001" style="enable-background:new 0 0 653.001 605.001;"
	 xml:space="preserve">
<style type="text/css">
<![CDATA[
]]>
</style>
<g id="Camada_2">
</g>
<g id="Camada_1">
</g>
<g id="Camada_4">
</g>
<g id="Camada_3">
	<rect x="19.202" y="28.58" style="fill:#5C5B5F;" width="8.237" height="499.943"/>
	<g>
		<path style="fill:#333333;" d="M58.875,79.903l-4.584-4.49h-1.72c-13.876,0-25.122-11.246-25.122-25.122V26.165h-8.247v25.979
			c0,17.344,14.06,31.403,31.402,31.403h4.549L58.875,79.903z"/>
	</g>
	<g>
		<path style="fill:#333333;" d="M58.875,113.903l-4.584-4.49h-1.72c-13.876,0-25.122-11.246-25.122-25.122V60.165h-8.247v25.979
			c0,17.344,14.06,31.403,31.402,31.403h4.549L58.875,113.903z"/>
	</g>
	<g>
		<path style="fill:#333333;" d="M58.875,148.903l-4.584-4.49h-1.72c-13.876,0-25.122-11.246-25.122-25.122V95.165h-8.247v25.979
			c0,17.344,14.06,31.403,31.402,31.403h4.549L58.875,148.903z"/>
	</g>
	<g>
		<path style="fill:#333333;" d="M58.875,204.903l-4.584-4.49h-1.72c-13.876,0-25.122-11.246-25.122-25.122v-24.126h-8.247v25.979
			c0,17.344,14.06,31.403,31.402,31.403h4.549L58.875,204.903z"/>
	</g>
	<g>
		<path style="fill:#333333;" d="M58.875,267.903l-4.584-4.49h-1.72c-13.876,0-25.122-11.246-25.122-25.122v-24.126h-8.247v25.979
			c0,17.344,14.06,31.403,31.402,31.403h4.549L58.875,267.903z"/>
	</g>
	<g>
		<path style="fill:#333333;" d="M58.875,313.903l-4.584-4.49h-1.72c-13.876,0-25.122-11.246-25.122-25.122v-24.126h-8.247v25.979
			c0,17.344,14.06,31.403,31.402,31.403h4.549L58.875,313.903z"/>
	</g>
	<g>
		<path style="fill:#333333;" d="M58.875,358.903l-4.584-4.49h-1.72c-13.876,0-25.122-11.246-25.122-25.122v-24.126h-8.247v25.979
			c0,17.344,14.06,31.403,31.402,31.403h4.549L58.875,358.903z"/>
	</g>
	<g>
		<path style="fill:#333333;" d="M58.875,418.903l-4.584-4.49h-1.72c-13.876,0-25.122-11.246-25.122-25.122v-24.126h-8.247v25.979
			c0,17.344,14.06,31.403,31.402,31.403h4.549L58.875,418.903z"/>
	</g>
	<g>
		<path style="fill:#333333;" d="M58.875,485.903l-4.584-4.49h-1.72c-13.876,0-25.122-11.246-25.122-25.122v-24.126h-8.247v25.979
			c0,17.344,14.06,31.403,31.402,31.403h4.549L58.875,485.903z"/>
	</g>
	<g>
		<path style="fill:#333333;" d="M58.875,526.903l-4.584-4.49h-1.72c-13.876,0-25.122-11.246-25.122-25.122v-24.126h-8.247v25.979
			c0,17.344,14.06,31.403,31.402,31.403h4.549L58.875,526.903z"/>
	</g>
	<g>
		<path style="fill:#333333;" d="M58.875,575.903l-4.584-4.49h-1.72c-13.876,0-25.122-11.246-25.122-25.122v-24.126h-8.247v25.979
			c0,17.344,14.06,31.403,31.402,31.403h4.549L58.875,575.903z"/>
	</g>
	<path style="fill:#FFFFFF;stroke:#D8DADE;stroke-miterlimit:10;" d="M540,88.773c0,0.428-1.312,0.774-2.932,0.774H63.972
		c-1.622,0-2.932-0.346-2.932-0.774v-20.68c0-0.427,1.311-0.774,2.932-0.774h473.096c1.62,0,2.932,0.347,2.932,0.774V88.773z"/>
	<rect x="67.463" y="72.334" style="fill:none;" width="464.404" height="13.408"/>
	<text transform="matrix(1 0 0 1 67.4629 82.6177)" style="fill:#5C5B5F; font-size:13.5;">Estado de consci&#xEA;ncia (irritabilidade, sonol&#xEA;ncia, torpor, etc.);</text>
	<path style="fill:#FFFFFF;stroke:#D8DADE;stroke-miterlimit:10;" d="M540,124.738c0,0.447-1.312,0.81-2.932,0.81H63.972
		c-1.622,0-2.932-0.362-2.932-0.81v-21.609c0-0.447,1.311-0.81,2.932-0.81h473.096c1.62,0,2.932,0.362,2.932,0.81V124.738z"/>
	<rect x="67.463" y="107.001" style="fill:none;" width="464.404" height="14"/>
	<text transform="matrix(1 0 0 1 67.4629 117.2842)" style="fill:#5C5B5F; font-size:13.5;">Avaliar pele: p&#xE1;lida ou corada / seca ou &#xFA;mida / sudoreica;</text>
	<path style="fill:#FFFFFF;stroke:#D8DADE;stroke-miterlimit:10;" d="M540,161.141c0,0.476-1.312,0.86-2.932,0.86H63.972
		c-1.622,0-2.932-0.385-2.932-0.86V138.18c0-0.476,1.311-0.86,2.932-0.86h473.096c1.62,0,2.932,0.385,2.932,0.86V161.141z"/>
	<rect x="67.463" y="142.001" style="fill:none;" width="464.404" height="13"/>
	<text transform="matrix(1 0 0 1 67.4629 152.2842)" style="fill:#5C5B5F; font-size:13.5;">Pulso perif&#xE9;rico: ausente ou presente</text>
	<path style="fill:#FFFFFF;stroke:#D8DADE;stroke-miterlimit:10;" d="M540,242.537c0,1.362-1.312,2.464-2.932,2.464H63.972
		c-1.622,0-2.932-1.102-2.932-2.464v-65.754c0-1.362,1.311-2.464,2.932-2.464h473.096c1.62,0,2.932,1.102,2.932,2.464V242.537z"/>
	<rect x="67.463" y="180.548" style="fill:none;" width="464.404" height="61.453"/>
	<text transform="matrix(1 0 0 1 67.4629 190.8311)"><tspan x="0" y="0" style="fill:#5C5B5F; font-size:13.5;">Sangramento de mucosas ou manifesta&#xE7;&#xF5;es hemorr&#xE1;gicas de pele: </tspan><tspan x="0" y="16.2" style="fill:#5C5B5F; font-size:13.5;">pesquisar pet&#xE9;quias, sufus&#xF5;es hemorr&#xE1;gicas em locais de pun&#xE7;&#xE3;o venosa e </tspan><tspan x="0" y="32.4" style="fill:#5C5B5F; font-size:13.5;">equimoses; examinar conjuntivas e cavidade oral (palato, gengiva e </tspan><tspan x="0" y="48.6" style="fill:#5C5B5F; font-size:13.5;">orofaringe);</tspan></text>
	<path style="fill:#FFFFFF;stroke:#D8DADE;stroke-miterlimit:10;" d="M540,282.105c0,0.495-1.312,0.896-2.932,0.896H63.972
		c-1.622,0-2.932-0.4-2.932-0.896v-23.891c0-0.495,1.311-0.896,2.932-0.896h473.096c1.62,0,2.932,0.4,2.932,0.896V282.105z"/>
	<rect x="67.463" y="263.548" style="fill:none;" width="464.404" height="13.453"/>
	<text transform="matrix(1 0 0 1 67.4629 273.8311)" style="fill:#5C5B5F; font-size:13.5;">Exantema (tipo, distribui&#xE7;&#xE3;o e data do aparecimento);</text>
	<path style="fill:#FFFFFF;stroke:#D8DADE;stroke-miterlimit:10;" d="M540,333.582c0,0.785-1.312,1.419-2.932,1.419H63.972
		c-1.622,0-2.932-0.634-2.932-1.419v-37.844c0-0.785,1.311-1.419,2.932-1.419h473.096c1.62,0,2.932,0.634,2.932,1.419V333.582z"/>
	<rect x="67.463" y="299.696" style="fill:none;" width="464.404" height="28.305"/>
	<text transform="matrix(1 0 0 1 67.4629 309.9795)"><tspan x="0" y="0" style="fill:#5C5B5F; font-size:13.5;">Edema subcut&#xE2;neo: de face, de parede tor&#xE1;cica e abdominal, de membros </tspan><tspan x="0" y="16.2" style="fill:#5C5B5F; font-size:13.5;">superiores e inferiores e de saco escrotal;</tspan></text>
	<path style="fill:#FFFFFF;stroke:#D8DADE;stroke-miterlimit:10;" d="M540,371.14c0,0.477-1.312,0.861-2.932,0.861H63.972
		c-1.622,0-2.932-0.385-2.932-0.861v-22.959c0-0.477,1.311-0.861,2.932-0.861h473.096c1.62,0,2.932,0.385,2.932,0.861V371.14z"/>
	<rect x="67.463" y="352.696" style="fill:none;" width="464.404" height="14.964"/>
	<text transform="matrix(1 0 0 1 67.4629 362.9795)" style="fill:#5C5B5F; font-size:13.5;">Grau de hidrata&#xE7;&#xE3;o, temperatura e peso;</text>
	<path style="fill:#FFFFFF;stroke:#D8DADE;stroke-miterlimit:10;" d="M540,458.304c0,1.461-1.312,2.641-2.932,2.641H63.972
		c-1.622,0-2.932-1.18-2.932-2.641v-70.37c0-1.46,1.311-2.639,2.932-2.639h473.096c1.62,0,2.932,1.179,2.932,2.639V458.304z"/>
	<rect x="67.463" y="392.132" style="fill:none;" width="464.404" height="61.869"/>
	<text transform="matrix(1 0 0 1 67.4629 402.415)"><tspan x="0" y="0" style="fill:#5C5B5F; font-size:13.5;">Enchimento capilar: considerado prolongado quando o tempo de </tspan><tspan x="0" y="16.2" style="fill:#5C5B5F; font-size:13.5;">enchimento &#xE9; maior que 2 segundos ap&#xF3;s o empalidecimento da pele, ap&#xF3;s </tspan><tspan x="0" y="32.4" style="fill:#5C5B5F; font-size:13.5;">leve compress&#xE3;o do leito ungueal (interpretar dentro do contexto de outros </tspan><tspan x="0" y="48.6" style="fill:#5C5B5F; font-size:13.5;">sinais de choque);</tspan></text>
	<path style="fill:#FFFFFF;stroke:#D8DADE;stroke-miterlimit:10;" d="M540,501.068c0,0.517-1.312,0.933-2.932,0.933H63.972
		c-1.622,0-2.932-0.416-2.932-0.933v-24.842c0-0.516,1.311-0.932,2.932-0.932h473.096c1.62,0,2.932,0.416,2.932,0.932V501.068z"/>
	<rect x="67.463" y="482.132" style="fill:none;" width="464.404" height="12.869"/>
	<text transform="matrix(1 0 0 1 67.4629 492.415)" style="fill:#5C5B5F; font-size:13.5;">Pulso: normal, d&#xE9;bil ou ausente;</text>
	<path style="fill:#FFFFFF;stroke:#D8DADE;stroke-miterlimit:10;" d="M540,541.068c0,0.517-1.312,0.933-2.932,0.933H63.972
		c-1.622,0-2.932-0.416-2.932-0.933v-24.842c0-0.516,1.311-0.932,2.932-0.932h473.096c1.62,0,2.932,0.416,2.932,0.932V541.068z"/>
	<rect x="67.463" y="522.046" style="fill:none;" width="464.404" height="12.955"/>
	<text transform="matrix(1 0 0 1 67.4629 532.3291)"><tspan x="0" y="0" style="fill:#5C5B5F; font-size:13.5;">Frequ&#xEA;ncia card&#xED;aca (</tspan><tspan x="174.972" y="0" style="font-size:13.5;"><a xlink:href="javascript:parent.load('H0025');">checar quadro de acordo com a idade</a></tspan><tspan x="358.757" y="0" style="fill:#5C5B5F; font-size:13.5;">)</tspan></text>
	<path style="fill:#FFFFFF;stroke:#D8DADE;stroke-miterlimit:10;" d="M540,594.579c0,0.788-1.312,1.422-2.932,1.422H63.972
		c-1.622,0-2.932-0.634-2.932-1.422v-37.864c0-0.786,1.311-1.42,2.932-1.42h473.096c1.62,0,2.932,0.634,2.932,1.42V594.579z"/>
	<rect x="67.463" y="562.947" style="fill:none;" width="464.404" height="28.054"/>
	<text transform="matrix(1 0 0 1 67.4629 573.2305)"><tspan x="0" y="0" style="font-size:13.5;">Press&#xE3;o arterial </tspan><tspan x="99.014" y="0" style="fill:#5C5B5F; font-size:13.5;">sentado e em posi&#xE7;&#xE3;o ortost&#xE1;tica (checar: </tspan><tspan x="357.157" y="0" style="font-size:13.5;">manguito </tspan><tspan x="418.375" y="0" style="fill:#5C5B5F; font-size:13.5;">e </tspan><tspan x="0" y="16.2" style="font-size:13.5;">quadro de acordo com a idade</tspan><tspan x="183.786" y="16.2" style="fill:#5C5B5F; font-size:13.5;">). </tspan></text>
	<path style="fill:#D8DADE;" d="M540,36.641c0,0.565-1.447,1.022-3.235,1.022H14.793c-1.786,0-3.234-0.457-3.234-1.022V9.358
		c0-0.564,1.448-1.023,3.234-1.023h521.972c1.788,0,3.235,0.459,3.235,1.023V36.641z"/>
	<rect x="68.199" y="16.222" style="fill:none;" width="258.334" height="15.673"/>
	<text transform="matrix(1 0 0 1 68.1992 27.2661)" style="fill:#434041; font-size:14.5;">Exame f&#xED;sico geral</text>
</g>
</svg>
