<?xml version="1.0" encoding="utf-8"?>
<!-- Generator: Adobe Illustrator 17.0.0, SVG Export Plug-In . SVG Version: 6.00 Build 0)  -->
<!DOCTYPE svg PUBLIC "-//W3C//DTD SVG 1.1//EN" "http://www.w3.org/Graphics/SVG/1.1/DTD/svg11.dtd">
<svg version="1.1" id="Camada_1" xmlns="http://www.w3.org/2000/svg" xmlns:xlink="http://www.w3.org/1999/xlink" x="0px" y="0px"
	 width="172.5px" height="119.5px" viewBox="-72.5 -19.5 172.5 119.5" enable-background="new -72.5 -19.5 172.5 119.5"
	 xml:space="preserve">
<rect x="33.35" y="-47.801" transform="matrix(0.7071 0.7071 -0.7071 0.7071 71.2705 -34.6543)" opacity="0.4" fill="#FFFFFF" width="88.233" height="233.01"/>
<rect x="-14.451" y="-74.681" transform="matrix(0.4654 0.8851 -0.8851 0.4654 102.3915 26.0087)" opacity="0.4" fill="#FFFFFF" width="88.233" height="344.895"/>
<rect x="18.296" y="-55.71" transform="matrix(0.5673 0.8235 -0.8235 0.5673 92.1209 -17.1835)" opacity="0.4" fill="#FFFFFF" width="88.233" height="269.57"/>
<g>
	<g id="XMLID_1_">
		<g>
			<path fill="#FFFFFF" d="M15.64,39.669c0.157,1.203,0.398,2.594,0.764,3.682c0.126-0.146,0.262-0.293,0.398-0.429
				c0.952-0.962,1.067-2.207,1.067-2.207s-0.46-2.144-1.852-2.144c-0.262,0-0.408,0.042-0.492,0.105
				C15.556,38.978,15.598,39.313,15.64,39.669z"/>
			<path fill="#FFFFFF" d="M29.406,45.025c-1.58-1.862,0-3.494,0-3.494c0.429,0.126,0.858,0.314,1.234,0.586
				c1.559,1.098,3.567,1.245,4.32,1.266c0,0-0.031,1.862-2.469,1.862c-0.314,0-0.617,0-0.91-0.01
				C30.777,45.234,30.055,45.192,29.406,45.025z M17.732,20.17c-0.669,1.716-0.858,3.096-1.716,5.157
				c-0.868,2.092-2.092,4.707-2.437,6.789l-0.052,0.439c-0.188,1.872,0.22,4.645,1.088,6.402c1.381,0.711,0.513,0,0.91-0.282
				c0.084-0.063,0.23-0.105,0.492-0.105c1.391,0,1.852,2.144,1.852,2.144s-0.115,1.245-1.067,2.207
				c-0.136,0.136-0.272,0.282-0.398,0.429c-0.753,0.858-1.329,1.841-1.935,2.971c-0.722,1.297-1.705,2.249-2.866,3.211
				c-1.161,0.952-2.28,2.856-2.291,3.923c-0.01,1.308,0.607,2.343,1.485,2.866c0.868,0.533,2.458,0.962,2.793,1.402
				c0.335,0.429,0.513,0.523,0.513,1.465c0,0.962-0.335,1.391-0.649,1.925c-0.314,0.523-1.182,1.914-0.575,3.295
				c0.617,1.412,1.517,1.747,1.59,2.28c0,0-0.429,3.096,0.439,3.734c0.879,0.638,1.203,2.26,1.203,2.26s-0.209,5.858,0.251,6.444
				c0.471,0.575,0.115,2.322,2.783,3.536c2.678,1.234,10.503-0.575,11.434-0.575c0.931,0,4.76-0.607,5.691,1.004
				c0.931,1.6,2.49,4.561,3.128,5.377c0.638,0.816,3.191,3.766,3.546,5.105c0.345,1.349,1.391,5.513,0,6.559
				c-0.136,0.105-0.272,0.209-0.418,0.314c0,0,11.978-4.833,19.195-8.902c7.218-4.048,15.534-7.71,19.844-3.975
				c-0.816-1.046-3.881-4.069-5.659-6.193c-0.303-0.356-0.575-0.69-0.785-0.983c-1.433-1.998-2.218-10.649-2.27-11.245
				c0,0.126-0.052,0.565-0.952-0.826c-1.036-1.569-1.569,0.01-2.72-1.841c-1.151-1.862-0.418-2.312-1.475-3.494
				c-1.067-1.161-1.381-1.444-0.774-2.573c0.617-1.14-1.224-2.207-1.224-2.207c1.6-2.155,3.17-4.749,3.316-6.841
				c0.272-3.651,0.617-7.26-2.866-10.074c-3.483-2.814-7.406,0-7.406,0s-1.213,1.538-2.176,1.632c0,0,0.962,1.59-0.073,2.322
				c-1.057,0.711-0.094,1.548-2.103,1.998c-1.998,0.471-1.914-0.23-3.483-1.025c-1.559-0.764-2.176-0.481-3.211-1.193
				c-1.046-0.722-0.523-1.067-0.701-2.103c-0.178-1.057-1.13-1.224-1.308-2.04c-0.157-0.837,1.234-0.575-0.868-2.312
				c-2.092-1.747-3.306-4.969-5.136-5.408c-1.831-0.429,1.485-0.167,1.13-1.046c-0.345-0.858-1.684-2.95-1.684-2.95
				s1.684,0.701,2.04,0c0.345-0.69,0.429-3.316-1.559-3.745c-2.019-0.439-3.755-1.653-3.933-2.699c-0.167-1.036,0.868-3.128,0-3.4
				c-0.868-0.251-4.875-2.783-5.659-3.912c-0.774-1.13-1.82-1.036-2.605-1.914c-0.785-0.868-0.408,0.617-1.768,0.617
				c-1.37,0-0.565,1.036-2.228,0.858c-1.339-0.126-0.931,0.408-2.228,0.481c-0.335,0.356-2.793,3.034-3.442,4.655
				C17.743,20.128,17.732,20.149,17.732,20.17z"/>
			<path fill="#FFFFFF" d="M72.85,69.147c0.052,0.596,0.837,9.247,2.27,11.245c0.209,0.293,0.481,0.628,0.785,0.983
				c1.381-0.418,3.023-1.381,4.174-1.988c1.831-0.962,1.653-3.745,1.475-5.126c-0.167-1.391,2.176-1.391,4.352-3.421
				c2.186-2.008-1.82-0.073-0.345-1.726c1.485-1.653,0.439-2.092,0.439-3.557c0-1.485-0.962-1.318-1.276-3.055
				c-0.314-1.736-2.029,0.167-2.124-1.663c-0.084-1.82,2.437-0.073,2.092-2.521c-0.345-2.437-1.046,0.084-0.701-1.37
				c0.356-1.444-0.513-1.329-0.262-2.741c0.262-1.433-0.607-0.847-1.036-2.406c-0.439-1.569-0.701-0.795-0.879-2.27
				c-0.157-1.485-0.429-0.356,1.224-2.291c1.653-1.935,1.653-4.843,1.653-6.935c0-2.092-0.178-2.427-1.182-3.996
				c-1.015-1.58-0.209-1.831-0.031-3.41c0.167-1.559-0.356-2.26-1.14-3.473c-0.785-1.224-1.13-3.316-1.13-4.781
				c0-1.496-1.13-3.149-1.914-4.09c-0.785-0.962-0.429-1.318-1.998-3.578c-1.569-2.27-1.914-3.055-3.044-3.755
				c-1.14-0.711-0.356-1.297-1.747-1.904c-1.391-0.617-1.475-1.391-2.354-2.531c-0.858-1.119-2.605-1.548-3.912-1.914
				c-1.308-0.345-4.791-2.783-6.182-3.389s-3.745-2.008-6.266-2.103c-2.521-0.094-2.96,0.973-5.304,0.805
				c-2.354-0.178-0.785-0.868-3.316-0.795c-2.521,0.084-1.559,0.962-2.866,1.046c-1.308,0.084-1.914,0.607-3.222,0.921
				c-1.308,0.293-1.914,0.293-3.4,0.052c-1.475-0.262-3.306,0.68-4.707,0.994c-1.402,0.314-1.465-0.052-2.647,0
				c-1.203,0.042-2.04,1.266-2.301,0.994c-0.262-0.251-0.879-1.485-2.96-0.785c-2.092,0.701-1.224,1.747-1.831,2.626
				c-0.607,0.858-1.213,1.465-2.699,1.82c-1.475,0.345-1.475,1.14-2.427,2.354c-0.952,1.213-1.58,0.513-2.103,0.868
				c-0.513,0.345-0.167,1.642,0,3.128c0.178,1.475,0.889,1.925,2.103,2.26c0.701,0.199,1.255,1.454,1.621,2.5
				c0-0.021,0.01-0.042,0.021-0.063c0.649-1.621,3.107-4.299,3.442-4.655c1.297-0.073,0.889-0.607,2.228-0.481
				c1.663,0.178,0.858-0.858,2.228-0.858c1.36,0,0.983-1.485,1.768-0.617c0.785,0.879,1.831,0.785,2.605,1.914
				c0.785,1.13,4.791,3.661,5.659,3.912c0.868,0.272-0.167,2.364,0,3.4c0.178,1.046,1.914,2.26,3.933,2.699
				c1.988,0.429,1.904,3.055,1.559,3.745c-0.356,0.701-2.04,0-2.04,0s1.339,2.092,1.684,2.95c0.356,0.879-2.96,0.617-1.13,1.046
				c1.831,0.439,3.044,3.661,5.136,5.408c2.103,1.736,0.711,1.475,0.868,2.312c0.178,0.816,1.13,0.983,1.308,2.04
				c0.178,1.036-0.345,1.381,0.701,2.103c1.036,0.711,1.653,0.429,3.211,1.193c1.569,0.795,1.485,1.496,3.483,1.025
				c2.008-0.45,1.046-1.287,2.103-1.998c1.036-0.732,0.073-2.322,0.073-2.322c0.962-0.094,2.176-1.632,2.176-1.632
				s3.923-2.814,7.406,0c3.483,2.814,3.138,6.423,2.866,10.074c-0.146,2.092-1.716,4.686-3.316,6.841c0,0,1.841,1.067,1.224,2.207
				c-0.607,1.13-0.293,1.412,0.774,2.573c1.057,1.182,0.324,1.632,1.475,3.494c1.151,1.852,1.684,0.272,2.72,1.841
				C72.797,69.712,72.85,69.273,72.85,69.147z"/>
			<path fill="#FFFFFF" d="M31.582,45.234c0.293,0.01,0.596,0.01,0.91,0.01c2.437,0,2.469-1.862,2.469-1.862
				c-0.753-0.021-2.762-0.167-4.32-1.266c-0.377-0.272-0.805-0.46-1.234-0.586c0,0-1.58,1.632,0,3.494
				C30.055,45.192,30.777,45.234,31.582,45.234z"/>
			<path fill="#FFFFFF" d="M41.729,101l49.626-0.136c-0.931-2.134-1.789-3.996-2.05-4.414c-0.607-0.952-3.044-3.567-3.912-4.352
				c-0.879-0.774-2.877-3.306-3.829-4.529c-4.31-3.734-12.626-0.073-19.844,3.975c-7.218,4.069-19.195,8.902-19.195,8.902
				C42.263,100.634,41.991,100.822,41.729,101z"/>
		</g>
		<g>
		</g>
	</g>
</g>
<g>
	<g id="XMLID_2_">
		<g>
		</g>
		<g>
			<path fill="none" stroke="#808080" stroke-linecap="round" stroke-linejoin="round" stroke-miterlimit="10" d="M13.579,32.116
				c0.345-2.082,1.569-4.697,2.437-6.789c0.868-2.082,1.046-3.473,1.736-5.22c0.649-1.621,3.107-4.299,3.442-4.655
				c0.031-0.031,0.042-0.042,0.042-0.042"/>
			<path fill="none" stroke="#808080" stroke-linecap="round" stroke-linejoin="round" stroke-miterlimit="10" d="M15.012,39.648
				c-0.136-0.209-0.272-0.439-0.398-0.69c-0.868-1.757-1.276-4.529-1.088-6.402"/>
			<path fill="none" stroke="#808080" stroke-linecap="round" stroke-linejoin="round" stroke-miterlimit="10" d="M14.615,38.957
				c1.695,0.868,0.01-0.387,1.402-0.387s1.852,2.144,1.852,2.144s-0.115,1.245-1.067,2.207c-0.962,0.952-1.621,2.082-2.333,3.4
				c-0.722,1.297-1.705,2.249-2.866,3.211c-1.161,0.952-2.28,2.856-2.291,3.923c-0.01,1.308,0.607,2.343,1.485,2.866
				c0.868,0.533,2.458,0.962,2.793,1.402c0.335,0.429,0.513,0.523,0.513,1.465c0,0.962-0.335,1.391-0.649,1.925
				c-0.314,0.523-1.182,1.914-0.575,3.295c0.617,1.412,1.517,1.747,1.59,2.28c0.063,0.513,0.324-1.13,1.893-0.356
				c1.569,0.785,1.611,0,2.218,0.042c0.617,0.042,1.308,0,2.134,0.607c0.826,0.617,2.375,1.119,3.776,1.287
				c1.391,0.188,1.391-0.115,1.538-0.565c0.146-0.471,0.952,0.617,0.952,0.617"/>
			<path fill="none" stroke="#808080" stroke-linecap="round" stroke-linejoin="round" stroke-miterlimit="10" d="M17.324,42.117
				c0,0-0.659-2.333-1.684-2.448c-1.015-0.126-3.567,0.868-4.038-0.021"/>
			<path fill="none" stroke="#808080" stroke-linecap="round" stroke-linejoin="round" stroke-miterlimit="10" d="M15.64,39.669
				c0,0-0.9,2.448,0.722,3.714"/>
			
				<line fill="none" stroke="#808080" stroke-linecap="round" stroke-linejoin="round" stroke-miterlimit="10" x1="25.651" y1="44.303" x2="28.329" y2="41.531"/>
			<path fill="none" stroke="#808080" stroke-linecap="round" stroke-linejoin="round" stroke-miterlimit="10" d="M35.275,43.382
				c0,0-0.115,0-0.314,0c-0.753-0.021-2.762-0.167-4.32-1.266c-0.377-0.272-0.805-0.46-1.234-0.586c-1.799-0.533-3.755,0-3.755,0"/>
			<path fill="none" stroke="#808080" stroke-linecap="round" stroke-linejoin="round" stroke-miterlimit="10" d="M34.961,43.382
				c0,0-0.031,1.862-2.469,1.862c-0.314,0-0.617,0-0.91-0.01c-0.805,0-1.527-0.042-2.176-0.209c-0.941-0.22-1.726-0.68-2.427-1.642"
				/>
			<path fill="none" stroke="#808080" stroke-linecap="round" stroke-linejoin="round" stroke-miterlimit="10" d="M33.549,43.246
				c0,0,0.094,1.517-1.967,1.988c-0.01,0.01-0.01,0.01-0.021,0.01"/>
			<path fill="none" stroke="#808080" stroke-linecap="round" stroke-linejoin="round" stroke-miterlimit="10" d="M29.406,41.531
				c0,0-1.58,1.632,0,3.494"/>
			<path fill="none" stroke="#808080" stroke-linecap="round" stroke-linejoin="round" stroke-miterlimit="10" d="M35.683,42.347
				c0,0-1.736-0.439-3.128-1.632c-1.391-1.182-4.446-1.444-5.053-1.444c-0.607,0-1.475,2.019-1.475,2.019"/>
			<path fill="none" stroke="#808080" stroke-linecap="round" stroke-linejoin="round" stroke-miterlimit="10" d="M23.59,36.991
				c0,0-0.617-1.381,0.523-1.81c1.13-0.45,2.751-0.962,5.293,0c2.531,0.941,5.157,0.868,6.276,1.81"/>
			<path fill="none" stroke="#808080" stroke-linecap="round" stroke-linejoin="round" stroke-miterlimit="10" d="M13.454,33.152
				l0.073-0.596l0.052-0.439c0,0,0.743,2.427,2.061,3.693c1.329,1.276,1.872,2.322,1.684,3.463"/>
			<path fill="none" stroke="#808080" stroke-linecap="round" stroke-linejoin="round" stroke-miterlimit="10" d="M17.324,57.609
				c0,0,0.921,0.272,0.042-0.533c-0.889-0.805-2.898-0.805-2.898-0.805"/>
			<path fill="none" stroke="#808080" stroke-linecap="round" stroke-linejoin="round" stroke-miterlimit="10" d="M19.96,59
				c0,0,1.213,0.513,1.977-0.701c0.753-1.224-0.701-3.431-0.701-3.431"/>
			<path fill="none" stroke="#808080" stroke-linecap="round" stroke-linejoin="round" stroke-miterlimit="10" d="M13.109,64.168
				c0,0,0.199-1.611,1.36-1.057c0.921,0.46,1.642,0.105,1.642,0.105s0.45-0.398,1.255,0.649c0.795,1.046,2.531,1.569,2.594,1.569
				c0.063,0,1.506,0.513,1.736,1.046"/>
			<path fill="none" stroke="#808080" stroke-linecap="round" stroke-linejoin="round" stroke-miterlimit="10" d="M20.379,70.664
				c0,0-0.941,0-1.402,0.398c-0.471,0.418-2.04,0.167-2.385-0.209s-0.753-0.429-0.931-0.429"/>
			<path fill="none" stroke="#808080" stroke-linecap="round" stroke-linejoin="round" stroke-miterlimit="10" d="M72.85,69.147
				c0,0.126-0.052,0.565-0.952-0.826c-1.036-1.569-1.569,0.01-2.72-1.841c-1.151-1.862-0.418-2.312-1.475-3.494
				c-1.067-1.161-1.381-1.444-0.774-2.573c0.617-1.14-1.224-2.207-1.224-2.207"/>
			<path fill="none" stroke="#808080" stroke-linecap="round" stroke-linejoin="round" stroke-miterlimit="10" d="M14.468,66.689
				c0,0-0.429,3.096,0.439,3.734c0.879,0.638,1.203,2.26,1.203,2.26s-0.209,5.858,0.251,6.444c0.471,0.575,0.115,2.322,2.783,3.536
				c2.678,1.234,10.503-0.575,11.434-0.575c0.931,0,4.76-0.607,5.691,1.004c0.931,1.6,2.49,4.561,3.128,5.377
				c0.638,0.816,3.191,3.766,3.546,5.105c0.345,1.349,1.391,5.513,0,6.559c-0.136,0.105-0.272,0.209-0.418,0.314
				c-0.262,0.188-0.533,0.377-0.795,0.554l49.626-0.136c-0.931-2.134-1.789-3.996-2.05-4.414c-0.607-0.952-3.044-3.567-3.912-4.352
				c-0.879-0.774-2.877-3.306-3.829-4.529c-0.952-1.224-4.969-5.126-6.444-7.176c-1.433-1.998-2.218-10.649-2.27-11.245
				c0-0.021,0-0.031,0-0.031"/>
			<path fill="none" stroke="#808080" stroke-linecap="round" stroke-linejoin="round" stroke-miterlimit="10" d="M60.234,49.533
				c-0.607,0-0.439-0.617-0.439-1.433c0-0.816,0.523-1.182,0.868-0.481c0.356,0.69,1.224,0.429,1.224,0.429s2.228,0.795,2.375,1.485
				"/>
			<path fill="none" stroke="#808080" stroke-linecap="round" stroke-linejoin="round" stroke-miterlimit="10" d="M59.104,50.747
				c0.262,0.523,0.167,0.701,0,1.391c-0.178,0.701,0.554,0.785,0.669,1.653c0.115,0.879-1.193,1.402-1.81,2.008
				c-0.607,0.617-1.297,1.967,0,1.862c1.308-0.115,1.81-1.862,2.866-2.301s5.408-1.297,3.755-4.613"/>
			<path fill="none" stroke="#808080" stroke-linecap="round" stroke-linejoin="round" stroke-miterlimit="10" d="M60.83,42.117
				c0,0,1.057-0.366,2.354-0.136c1.245,0.23,2.72,1.015,3.661,3.264c1.914,4.561,0,7.249,0,7.249s-1.391,2.584-3.829,3.776"/>
			<path fill="none" stroke="#808080" stroke-linecap="round" stroke-linejoin="round" stroke-miterlimit="10" d="M55.621,63.54
				c0,0,0.167-0.921,1.611-0.554c1.433,0.387,3.954,0.554,5.44-1.088c0.638-0.711,1.841-2.071,3.034-3.693
				c1.6-2.155,3.17-4.749,3.316-6.841c0.272-3.651,0.617-7.26-2.866-10.074c-3.483-2.814-7.406,0-7.406,0s-1.213,1.538-2.176,1.632
				c0,0,0.962,1.59-0.073,2.322c-1.057,0.711-0.094,1.548-2.103,1.998c-1.998,0.471-1.914-0.23-3.483-1.025
				c-1.559-0.764-2.176-0.481-3.211-1.193c-1.046-0.722-0.523-1.067-0.701-2.103c-0.178-1.057-1.13-1.224-1.308-2.04
				c-0.157-0.837,1.234-0.575-0.868-2.312c-2.092-1.747-3.306-4.969-5.136-5.408c-1.831-0.429,1.485-0.167,1.13-1.046
				c-0.345-0.858-1.684-2.95-1.684-2.95s1.684,0.701,2.04,0c0.345-0.69,0.429-3.316-1.559-3.745
				c-2.019-0.439-3.755-1.653-3.933-2.699c-0.167-1.036,0.868-3.128,0-3.4c-0.868-0.251-4.875-2.783-5.659-3.912
				c-0.774-1.13-1.82-1.036-2.605-1.914c-0.785-0.868-0.408,0.617-1.768,0.617c-1.37,0-0.565,1.036-2.228,0.858
				c-1.339-0.126-0.931,0.408-2.228,0.481c-0.303,0.021-0.701,0.01-1.234-0.042"/>
			<path fill="none" stroke="#808080" stroke-linecap="round" stroke-linejoin="round" stroke-miterlimit="10" d="M57.232,61.72
				c0,0-0.398-2.008,0.471-2.615"/>
			<path fill="none" stroke="#808080" stroke-linecap="round" stroke-linejoin="round" stroke-miterlimit="10" d="M60.83,43.874
				c0,0,2.511,1.736,1.569,2.343"/>
			<path fill="none" stroke="#808080" stroke-linecap="round" stroke-linejoin="round" stroke-miterlimit="10" d="M63.1,41.897
				c0,0,0.031,0.031,0.084,0.084c0.554,0.544,3.745,3.734,3.745,5.262"/>
			<path fill="none" stroke="#808080" stroke-linecap="round" stroke-linejoin="round" stroke-miterlimit="10" d="M17.743,19.239
				c0,0-0.408-1.224-1.632-1.569c-1.213-0.335-1.925-0.785-2.103-2.26c-0.167-1.485-0.513-2.783,0-3.128
				c0.523-0.356,1.151,0.345,2.103-0.868c0.952-1.213,0.952-2.008,2.427-2.354c1.485-0.356,2.092-0.962,2.699-1.82
				c0.607-0.879-0.262-1.925,1.831-2.626c2.082-0.701,2.699,0.533,2.96,0.785c0.262,0.272,1.098-0.952,2.301-0.994
				c1.182-0.052,1.245,0.314,2.647,0c1.402-0.314,3.232-1.255,4.707-0.994c1.485,0.241,2.092,0.241,3.4-0.052
				c1.308-0.314,1.914-0.837,3.222-0.921c1.308-0.084,0.345-0.962,2.866-1.046c2.531-0.073,0.962,0.617,3.316,0.795
				c2.343,0.167,2.783-0.9,5.304-0.805c2.521,0.094,4.875,1.496,6.266,2.103s4.875,3.044,6.182,3.389
				c1.308,0.366,3.055,0.795,3.912,1.914c0.879,1.14,0.962,1.914,2.354,2.531c1.391,0.607,0.607,1.193,1.747,1.904
				c1.13,0.701,1.475,1.485,3.044,3.755c1.569,2.26,1.213,2.615,1.998,3.578c0.785,0.941,1.914,2.594,1.914,4.09
				c0,1.465,0.345,3.557,1.13,4.781c0.785,1.213,1.308,1.914,1.14,3.473c-0.178,1.58-0.983,1.831,0.031,3.41
				c1.004,1.569,1.182,1.904,1.182,3.996c0,2.092,0,5-1.653,6.935c-1.653,1.935-1.381,0.805-1.224,2.291
				c0.178,1.475,0.439,0.701,0.879,2.27c0.429,1.559,1.297,0.973,1.036,2.406c-0.251,1.412,0.617,1.297,0.262,2.741
				c-0.345,1.454,0.356-1.067,0.701,1.37c0.345,2.448-2.176,0.701-2.092,2.521c0.094,1.831,1.81-0.073,2.124,1.663
				c0.314,1.736,1.276,1.569,1.276,3.055c0,1.465,1.046,1.904-0.439,3.557c-1.475,1.653,2.531-0.282,0.345,1.726
				c-2.176,2.029-4.519,2.029-4.352,3.421c0.178,1.381,0.356,4.163-1.475,5.126s-3.086,2.594-4.383,1.726"/>
			<path fill="none" stroke="#808080" stroke-linecap="round" stroke-linejoin="round" stroke-miterlimit="10" d="M42.524,100.446
				c0,0,11.978-4.833,19.195-8.902c7.218-4.048,15.534-7.71,19.844-3.975"/>
		</g>
	</g>
</g>
</svg>
