<?xml version="1.0" encoding="utf-8"?>
<!-- Generator: Adobe Illustrator 17.0.0, SVG Export Plug-In . SVG Version: 6.00 Build 0)  -->
<!DOCTYPE svg PUBLIC "-//W3C//DTD SVG 1.1//EN" "http://www.w3.org/Graphics/SVG/1.1/DTD/svg11.dtd">
<svg version="1.1" id="Camada_1" xmlns="http://www.w3.org/2000/svg" xmlns:xlink="http://www.w3.org/1999/xlink" x="0px" y="0px"
	 width="80.417px" height="59.75px" viewBox="0 0 80.417 59.75" enable-background="new 0 0 80.417 59.75" xml:space="preserve">
<rect x="33.35" y="-47.801" transform="matrix(-0.7071 -0.7071 0.7071 -0.7071 83.6632 172.0602)" opacity="0.4" fill="#FFFFFF" enable-background="new    " width="88.232" height="233.008"/>
<rect x="-14.452" y="-74.681" transform="matrix(-0.4654 -0.8851 0.8851 -0.4654 -43.0622 169.5228)" opacity="0.4" fill="#FFFFFF" enable-background="new    " width="88.233" height="344.895"/>
<rect x="18.293" y="-55.711" transform="matrix(-0.5673 -0.8235 0.8235 -0.5673 32.6976 175.3251)" opacity="0.4" fill="#FFFFFF" enable-background="new    " width="88.232" height="269.568"/>
<g>
	<path fill="#FFFFFF" stroke="#878787" stroke-width="0.5" stroke-miterlimit="10" d="M53.389,52.146
		c-9.674,0-17.545-7.866-17.545-17.544v-0.284h3.591v0.284c0,7.696,6.261,13.956,13.955,13.956c7.694,0,13.953-6.26,13.953-13.956
		v-0.284h3.591v0.284C70.933,44.28,63.061,52.146,53.389,52.146"/>
	<path fill="#FFFFFF" stroke="#878787" stroke-width="0.5" stroke-miterlimit="10" d="M35.869,32.595V18.66h0.284
		c1.03,0,1.843,0.305,2.418,0.903c0.923,0.964,0.877,2.331,0.874,2.387v10.645H35.869z"/>
	<path fill="#FFFFFF" stroke="#878787" stroke-width="0.5" stroke-miterlimit="10" d="M67.334,32.595V21.938
		c-0.003-0.044-0.049-1.411,0.875-2.375c0.575-0.598,1.387-0.903,2.415-0.903h0.285l0,0.284l0,13.65H67.334z"/>
	<path fill="#FFFFFF" stroke="#878787" stroke-width="0.5" stroke-miterlimit="10" d="M57.178,23.707c0-1.458-1.31-1.29-1.31-1.29
		h-5.152c0,0-0.933,0.002-0.933,0.906v6.058h7.394V23.707z"/>
	<path fill="#FFFFFF" stroke="#878787" stroke-width="0.5" stroke-miterlimit="10" d="M49.784,43.404
		c0,1.461,1.312,1.295,1.312,1.295h5.151c0,0,0.931-0.004,0.931-0.905v-6.063h-7.394V43.404z"/>
	<path fill="#FFFFFF" stroke="#878787" stroke-width="0.5" stroke-miterlimit="10" d="M42.356,30.195v4.336
		c0,2.489,2.024,2.346,2.024,2.346h12.164l-6.874-6.681L42.356,30.195z"/>
	<path fill="#FFFFFF" stroke="#878787" stroke-width="0.5" stroke-miterlimit="10" d="M64.664,32.519
		c0-2.482-2.017-2.337-2.017-2.337h-4.135c0.001,0.004,0.001,0.008,0.003,0.013h-8.109l2.642,2.558l2.554-2.557l2.362,2.363
		l-2.517,2.516l0.227,0.219l2.326-2.321l0.186,0.185l-2.321,2.32l0.227,0.22l2.06-2.063l0.185,0.186l-2.059,2.06l1.004,0.972
		l6.92-0.008v-0.006h0.463V32.519z"/>
</g>
</svg>
